<svg width="291" height="42" viewBox="0 0 291 42" fill="none" xmlns="http://www.w3.org/2000/svg">
<path d="M11.4229 24.9743C15.549 24.9743 18.3721 21.7504 18.3721 17.8388C18.3721 13.9701 15.5924 10.7463 11.4229 10.7463C7.20987 10.7463 4.34328 13.9272 4.34328 17.7958C4.34328 21.7075 7.25331 24.9743 11.4229 24.9743ZM11.4663 7.09253C17.7206 7.09253 22.7588 11.606 22.7588 17.7958C22.7588 23.8997 17.6338 28.5851 11.7703 28.5851C9.03405 28.5851 6.38464 27.8113 4.38673 25.5761H4.16957V41.1797H0V19.5152C0 11.9499 4.43016 7.09253 11.4663 7.09253Z" fill="white"/>
<path d="M38.0473 24.9743C42.2169 24.9743 45.04 21.7934 45.04 17.8388C45.04 13.8842 42.2169 10.7033 38.0473 10.7033C33.8778 10.7033 31.0546 13.8412 31.0546 17.8388C31.0546 21.7934 33.8778 24.9743 38.0473 24.9743ZM26.6245 17.8388C26.6245 11.6489 31.8799 7.09253 38.0039 7.09253C44.1714 7.09253 49.3833 11.6489 49.3833 17.8388C49.3833 24.0287 44.1279 28.5851 38.0039 28.5851C31.8799 28.5851 26.6245 24.0287 26.6245 17.8388Z" fill="white"/>
<path d="M64.8017 28.5851C58.2433 28.5851 53.292 24.0716 53.292 17.8388C53.292 11.6489 58.1564 7.09253 64.6714 7.09253C69.6662 7.09253 74.3569 9.75759 75.5296 14.8728H71.2297C70.1873 12.1218 67.7117 10.7033 64.7582 10.7033C60.3715 10.7033 57.6787 13.9271 57.6787 17.8818C57.6787 21.8794 60.4584 24.9313 64.8451 24.9313C67.7117 24.9313 70.2742 23.6418 71.3166 20.6758H75.6164C74.0963 26.0919 69.6227 28.5851 64.8017 28.5851Z" fill="white"/>
<path d="M91.0789 25.619L84.2165 11.434H84.1296V28.1552H80.0903V7.52234H86.4749L93.2505 21.6214H93.3808L100.156 7.52234H106.584V28.1552H102.545V11.434H102.415L95.5958 25.619H91.0789Z" fill="white"/>
<path d="M122.438 24.9743C126.607 24.9743 129.43 21.7934 129.43 17.8388C129.43 13.8842 126.607 10.7033 122.438 10.7033C118.268 10.7033 115.445 13.8412 115.445 17.8388C115.445 21.7934 118.268 24.9743 122.438 24.9743ZM111.015 17.8388C111.015 11.6489 116.27 7.09253 122.394 7.09253C128.562 7.09253 133.773 11.6489 133.773 17.8388C133.773 24.0287 128.518 28.5851 122.394 28.5851C116.27 28.5851 111.015 24.0287 111.015 17.8388Z" fill="white"/>
<path d="M135.901 28.3272V24.0717H135.988C136.77 24.0717 137.769 23.7278 138.377 23.04C139.159 22.1803 139.55 20.6758 139.941 18.3976L140.549 15.0878C141.244 11.3051 142.59 7.4364 148.367 7.4364H156.489V28.1123H152.319V11.2621H149.062C145.804 11.2621 145.153 12.1648 144.371 16.5493L143.85 19.6442C143.372 22.4812 142.677 24.9314 141.157 26.4788C140.027 27.6394 138.464 28.3272 136.336 28.3272H135.901Z" fill="white"/>
<path d="M172.515 24.9743C176.685 24.9743 179.508 21.7934 179.508 17.8388C179.508 13.8842 176.685 10.7033 172.515 10.7033C168.346 10.7033 165.522 13.8412 165.522 17.8388C165.522 21.7934 168.346 24.9743 172.515 24.9743ZM161.136 17.8388C161.136 11.6489 166.391 7.09253 172.515 7.09253C178.683 7.09253 183.895 11.6489 183.895 17.8388C183.895 24.0287 178.639 28.5851 172.515 28.5851C166.348 28.5851 161.136 24.0287 161.136 17.8388Z" fill="white"/>
<path d="M202.267 24.4156V11.2192H198.358C195.839 11.2192 194.97 13.2395 194.449 15.3457L193.537 19.3004C193.016 21.4926 192.278 23.341 191.496 24.1147V24.4156H202.267ZM188.716 33.1416H184.72V24.3296H187.413C188.586 22.9971 189.237 21.0198 189.802 18.6556L190.714 14.8299C191.583 11.1332 193.19 7.47949 198.315 7.47949H206.393V24.3296H209.39V33.1416H205.394V28.1553H188.716V33.1416Z" fill="white"/>
<path d="M226.068 0H230.368V4.25553H226.068V0ZM230.455 15.8615C229.803 12.7236 227.371 10.6603 223.723 10.6603C220.074 10.6603 217.599 12.8955 216.817 15.8615H230.455ZM216.73 0H221.03V4.25553H216.73V0ZM223.94 28.5851C217.295 28.5851 212.474 24.0716 212.474 17.8388C212.474 11.649 217.338 7.09254 223.766 7.09254C228.761 7.09254 234.755 10.3164 234.755 18.1397V18.9994H216.6C217.034 22.4382 219.77 24.9314 223.853 24.9314C226.285 24.9314 229.195 24.0287 230.02 21.9654H234.32C233.017 26.5218 228.196 28.5851 223.94 28.5851Z" fill="white"/>
<path d="M254.43 7.52234V15.7325H257.904L262.812 7.52234H267.373L261.292 17.3659L267.894 28.1552H263.247L257.948 19.4722H254.43V28.1552H250.477V19.4722H246.959L241.704 28.1552H237.013L243.615 17.3659L237.534 7.52234H242.095L247.003 15.7325H250.477V7.52234H254.43Z" fill="white"/>
<path d="M280.88 24.9743C284.181 24.9743 286.613 22.696 286.613 19.4722C286.613 16.2483 284.224 13.9271 280.88 13.9271C277.623 13.9271 275.19 16.2913 275.19 19.4722C275.19 22.6531 277.579 24.9743 280.88 24.9743ZM270.804 18.8704L270.76 7.52234H274.93L274.973 13.3683H275.104C276.841 11.262 279.099 10.2304 281.749 10.2304C286.874 10.2304 291 14.0131 291 19.2572C291 24.5874 286.787 28.5421 280.967 28.5421C275.147 28.585 270.847 24.5015 270.804 18.8704Z" fill="white"/>
</svg>
